<svg xmlns="http://www.w3.org/2000/svg" version="1.1" xmlns:xlink="http://www.w3.org/1999/xlink" xmlns:svgjs="http://svgjs.dev/svgjs" width="1000" height="184" viewBox="0 0 1000 184"><g transform="matrix(1,0,0,1,-0.6060606060606233,0.1036090539879524)"><svg viewBox="0 0 396 73" data-background-color="#ffffff" preserveAspectRatio="xMidYMid meet" height="184" width="1000" xmlns="http://www.w3.org/2000/svg" xmlns:xlink="http://www.w3.org/1999/xlink"><g id="tight-bounds" transform="matrix(1,0,0,1,0.2400000000000091,-0.041103482408828995)"><svg viewBox="0 0 395.52 73.08220645735642" height="73.08220645735642" width="395.52"><g><svg viewBox="0 0 605.2448714194156 111.83411875589067" height="73.08220645735642" width="395.52"><g transform="matrix(1,0,0,1,209.72487141941565,0)"><svg viewBox="0 0 395.52 111.83411875589067" height="111.83411875589067" width="395.52"><g id="textblocktransform"><svg viewBox="0 0 395.52 111.83411875589067" height="111.83411875589067" width="395.52" id="textblock"><g><svg viewBox="0 0 395.52 111.83411875589067" height="111.83411875589067" width="395.52"><g transform="matrix(1,0,0,1,0,0)"><svg width="395.52" viewBox="0.949999988079071 -42.189998626708984 155.41000366210938 43.94999694824219" height="111.83411875589067" data-palette-color="#e363aa"><path d="M18.6-24.61L18.6-24.61 15.65-24.61Q13.77-24.61 12.94-25.57 12.11-26.54 12.11-28.13L12.11-28.13Q12.11-31.64 17.36-31.64L17.36-31.64Q22.29-31.64 24.78-30.18L24.78-30.18 23.36-29.1Q21.66-29.88 17.36-29.88L17.36-29.88Q15.26-29.88 14.54-29.42 13.82-28.96 13.82-28.13 13.82-27.29 14.21-26.83 14.6-26.37 15.65-26.37L15.65-26.37 18.68-26.37Q21.97-26.37 24.62-25.24 27.27-24.12 28.98-22.18 30.69-20.24 31.59-17.71 32.5-15.19 32.5-12.3L32.5-12.3Q32.5-9.96 31.84-7.86 31.18-5.76 29.85-4 28.52-2.25 26.65-0.96 24.78 0.32 22.2 1.04 19.63 1.76 16.63 1.76L16.63 1.76Q11.91 1.76 7.8 0.33 3.69-1.1 0.95-3.66L0.95-3.66 2.37-4.71Q4.86-2.47 8.61-1.23 12.35 0 16.63 0L16.63 0Q19.97 0 22.67-0.96 25.37-1.93 27.11-3.61 28.86-5.3 29.8-7.52 30.74-9.74 30.74-12.3L30.74-12.3Q30.74-15.7 29.37-18.44 28-21.19 25.21-22.9 22.41-24.61 18.6-24.61ZM15.65-22.85L15.65-22.85 18.43-22.85Q23.39-22.85 26.18-19.82 28.98-16.8 28.98-12.3L28.98-12.3Q28.98-7.74 25.73-4.75 22.49-1.76 16.63-1.76L16.63-1.76Q12.72-1.76 9.33-2.83 5.93-3.91 3.69-5.86L3.69-5.86 5.05-6.96Q7.06-5.32 10.1-4.42 13.13-3.52 16.63-3.52L16.63-3.52Q21.78-3.52 24.5-5.98 27.22-8.45 27.22-12.3L27.22-12.3Q27.22-16.11 24.94-18.6 22.66-21.09 18.41-21.09L18.41-21.09 15.65-21.09Q12.08-21.09 10.3-23.05 8.52-25 8.52-28.13 8.52-31.25 10.73-33.2 12.94-35.16 17.36-35.16L17.36-35.16Q20.46-35.16 23.12-34.44 25.78-33.72 27.51-32.37L27.51-32.37 26.12-31.3Q23.07-33.4 17.36-33.4L17.36-33.4Q13.67-33.4 11.98-31.95 10.28-30.49 10.28-28.13L10.28-28.13Q10.28-25.73 11.54-24.29 12.79-22.85 15.65-22.85ZM15.65-19.34L15.65-19.34 18.33-19.34Q21.9-19.34 23.68-17.36 25.46-15.38 25.46-12.3L25.46-12.3Q25.46-9.18 23.25-7.23 21.04-5.27 16.63-5.27L16.63-5.27Q13.53-5.27 10.85-5.99 8.18-6.71 6.45-8.06L6.45-8.06 7.84-9.13Q10.89-7.03 16.63-7.03L16.63-7.03Q20.31-7.03 22.01-8.48 23.71-9.94 23.71-12.3 23.71-14.67 22.44-16.13 21.17-17.58 18.31-17.58L18.31-17.58 15.65-17.58Q10.64-17.58 7.82-20.57 5-23.56 5-28.13 5-32.69 8.25-35.68 11.5-38.67 17.36-38.67L17.36-38.67Q21.26-38.67 24.65-37.6 28.03-36.52 30.27-34.57L30.27-34.57 28.91-33.47Q26.9-35.11 23.88-36.01 20.85-36.91 17.36-36.91L17.36-36.91Q12.21-36.91 9.48-34.45 6.76-31.98 6.76-28.13L6.76-28.13Q6.76-24.29 9.06-21.81 11.35-19.34 15.65-19.34ZM15.65-15.82L15.65-15.82 18.33-15.82Q20.21-15.82 21.04-14.84 21.88-13.87 21.88-12.3L21.88-12.3Q21.88-8.79 16.63-8.79L16.63-8.79Q11.67-8.79 9.18-10.25L9.18-10.25 10.6-11.33Q12.3-10.55 16.63-10.55L16.63-10.55Q18.73-10.55 19.45-11.01 20.17-11.47 20.17-12.3L20.17-12.3Q20.17-13.11 19.76-13.59 19.36-14.06 18.29-14.06L18.29-14.06 15.65-14.06Q12.28-14.06 9.56-15.16 6.84-16.26 5.09-18.19 3.34-20.12 2.42-22.66 1.49-25.2 1.49-28.13L1.49-28.13Q1.49-30.47 2.15-32.57 2.81-34.67 4.14-36.43 5.47-38.18 7.34-39.47 9.2-40.75 11.78-41.47 14.36-42.19 17.36-42.19L17.36-42.19Q22.07-42.19 26.17-40.76 30.27-39.33 33.01-36.77L33.01-36.77 31.59-35.72Q29.1-37.96 25.37-39.2 21.63-40.43 17.36-40.43L17.36-40.43Q14.01-40.43 11.32-39.47 8.62-38.5 6.87-36.82 5.13-35.13 4.19-32.91 3.25-30.69 3.25-28.13L3.25-28.13Q3.25-24.68 4.64-21.92 6.03-19.17 8.89-17.49 11.74-15.82 15.65-15.82ZM50.61-27.05Q47.78-24.22 47.78-20.21 47.78-16.21 50.61-13.38 53.44-10.55 57.44-10.55 61.45-10.55 64.28-13.38 67.11-16.21 67.11-20.21 67.11-24.22 64.28-27.05 61.45-29.88 57.44-29.88 53.44-29.88 50.61-27.05ZM46.92-15.78Q46.02-17.9 46.02-20.21 46.02-22.53 46.92-24.65 47.82-26.76 49.36-28.3 50.9-29.83 53.01-30.74 55.12-31.64 57.44-31.64 59.76-31.64 61.87-30.74 63.99-29.83 65.52-28.3 67.06-26.76 67.97-24.65 68.87-22.53 68.87-20.21 68.87-17.9 67.97-15.78 67.06-13.67 65.52-12.13 63.99-10.6 61.87-9.69 59.76-8.79 57.44-8.79 55.12-8.79 53.01-9.69 50.9-10.6 49.36-12.13 47.82-13.67 46.92-15.78ZM46.03-26.83Q44.26-23.8 44.26-20.21 44.26-16.63 46.03-13.6 47.8-10.57 50.83-8.8 53.85-7.03 57.44-7.03 61.03-7.03 64.06-8.8 67.09-10.57 68.86-13.6 70.63-16.63 70.63-20.21 70.63-23.8 68.86-26.83 67.09-29.86 64.06-31.63 61.03-33.4 57.44-33.4 53.85-33.4 50.83-31.63 47.8-29.86 46.03-26.83ZM44.5-12.72Q42.5-16.16 42.5-20.21 42.5-24.27 44.5-27.71 46.51-31.15 49.95-33.15 53.39-35.16 57.44-35.16 61.5-35.16 64.94-33.15 68.38-31.15 70.38-27.71 72.39-24.27 72.39-20.21 72.39-16.16 70.38-12.72 68.38-9.28 64.94-7.28 61.5-5.27 57.44-5.27 53.39-5.27 49.95-7.28 46.51-9.28 44.5-12.72ZM42.06-26.71Q40.74-23.61 40.74-20.21 40.74-16.82 42.06-13.72 43.38-10.62 45.62-8.39 47.85-6.15 50.95-4.83 54.05-3.52 57.44-3.52 60.84-3.52 63.94-4.83 67.04-6.15 69.27-8.39 71.51-10.62 72.82-13.72 74.14-16.82 74.14-20.21 74.14-23.61 72.82-26.71 71.51-29.81 69.27-32.04 67.04-34.28 63.94-35.6 60.84-36.91 57.44-36.91 54.05-36.91 50.95-35.6 47.85-34.28 45.62-32.04 43.38-29.81 42.06-26.71ZM41.46-10.96Q38.99-15.21 38.99-20.21 38.99-25.22 41.46-29.47 43.94-33.72 48.19-36.19 52.44-38.67 57.44-38.67 62.45-38.67 66.7-36.19 70.94-33.72 73.42-29.47 75.9-25.22 75.9-20.21 75.9-15.21 73.42-10.96 70.94-6.71 66.7-4.24 62.45-1.76 57.44-1.76 52.44-1.76 48.19-4.24 43.94-6.71 41.46-10.96ZM38.83-28.06Q37.23-24.32 37.23-20.21 37.23-16.11 38.83-12.37 40.43-8.62 43.14-5.91 45.85-3.2 49.59-1.6 53.34 0 57.44 0 61.55 0 65.29-1.6 69.04-3.2 71.75-5.91 74.46-8.62 76.06-12.37 77.66-16.11 77.66-20.21 77.66-24.32 76.06-28.06 74.46-31.81 71.75-34.52 69.04-37.23 65.29-38.83 61.55-40.43 57.44-40.43 53.34-40.43 49.59-38.83 45.85-37.23 43.14-34.52 40.43-31.81 38.83-28.06ZM37.22-11.68Q35.47-15.75 35.47-20.21 35.47-24.68 37.22-28.75 38.96-32.81 41.9-35.75 44.85-38.7 48.91-40.44 52.98-42.19 57.44-42.19 61.91-42.19 65.98-40.44 70.04-38.7 72.98-35.75 75.93-32.81 77.67-28.75 79.42-24.68 79.42-20.21 79.42-15.75 77.67-11.68 75.93-7.62 72.98-4.68 70.04-1.73 65.98 0.01 61.91 1.76 57.44 1.76 52.98 1.76 48.91 0.01 44.85-1.73 41.9-4.68 38.96-7.62 37.22-11.68ZM108.64-38.67L82.27-38.67 82.27-40.43 108.64-40.43 108.64-38.67ZM108.64-35.16L82.27-35.16 82.27-36.91 108.64-36.91 108.64-35.16ZM89.3-31.64L82.27-31.64 82.27-33.4 108.64-33.4 108.64-31.64 101.61-31.64 101.61 0 99.85 0 99.85-31.64 98.09-31.64 98.09 0 96.33 0 96.33-31.64 94.58-31.64 94.58 0 92.82 0 92.82-31.64 91.06-31.64 91.06 0 89.3 0 89.3-31.64ZM137.49-11.87L130.07-11.87 130.78-13.62 136.78-13.62 137.49-11.87ZM138.91-8.35L128.7-8.35 129.39-10.11 138.15-10.11 138.91-8.35ZM140.28-4.83L127.34-4.83 128.02-6.59 139.54-6.59 140.28-4.83ZM128.09-38.06L113.05 0 111.15 0 127.14-40.43 129.05-40.43 145.01 0 143.13 0 128.09-38.06ZM114.93 0L128.31-33.89 129.31-31.64 116.81 0 114.93 0ZM118.72 0L130.27-29.25 131.19-26.83 120.62 0 118.72 0ZM122.5 0L132.12-24.41 133.05-21.95 124.38 0 122.5 0ZM140.37-40.43L156.36 0 154.46 0 138.49-40.43 140.37-40.43ZM134.71-40.43L136.59-40.43 152.58 0 150.7 0 134.71-40.43ZM130.93-40.43L132.81-40.43 148.8 0 146.89 0 130.93-40.43Z" opacity="1" transform="matrix(1,0,0,1,0,0)" fill="#e363aa" class="undefined-text-0" data-fill-palette-color="primary" id="text-0"></path></svg></g></svg></g></svg></g></svg></g><g transform="matrix(1,0,0,1,0,3.5389108065167605)"><svg viewBox="0 0 183.32352 104.75629714285715" height="104.75629714285715" width="183.32352"><g><svg xmlns="http://www.w3.org/2000/svg" xmlns:xlink="http://www.w3.org/1999/xlink" version="1.1" x="0" y="0" viewBox="1 23 98 56" enable-background="new 0 0 100 100" xml:space="preserve" height="104.75629714285715" width="183.32352" class="icon-icon-0" data-fill-palette-color="accent" id="icon-0"><g fill="#e363aa" data-fill-palette-color="accent"><path fill="#e363aa" d="M94 23H6c-2.75 0-5 2.25-5 5v46c0 2.75 2.25 5 5 5h88c2.75 0 5-2.25 5-5V28C99 25.25 96.75 23 94 23zM76 29.156C76 28.534 76.534 28 77.156 28h5.687C83.466 28 84 28.534 84 29.156v7.687C84 37.466 83.466 38 82.844 38h-5.687c-0.623 0-1.068-0.445-1.156-1.156V29.156zM87.844 40C88.466 40 89 40.534 89 41.156v7.687C89 49.466 88.466 50 87.844 50h-5.687c-0.623 0-1.068-0.445-1.156-1.156v-7.687C81 40.534 81.534 40 82.156 40H87.844zM16 53.156C16 52.534 16.534 52 17.156 52h5.687C23.466 52 24 52.534 24 53.156v7.687C24 61.466 23.466 62 22.844 62h-5.687c-0.623 0-1.068-0.445-1.156-1.156V53.156zM12.156 50c-0.623 0-1.068-0.445-1.156-1.156v-7.687C11 40.534 11.534 40 12.156 40h5.687C18.466 40 19 40.534 19 41.156v7.687C19 49.466 18.466 50 17.844 50H12.156zM22.156 50c-0.623 0-1.068-0.445-1.156-1.156v-7.687C21 40.534 21.534 40 22.156 40h5.687C28.466 40 29 40.534 29 41.156v7.687C29 49.466 28.466 50 27.844 50H22.156zM26 53.156C26 52.534 26.534 52 27.156 52h5.687C33.466 52 34 52.534 34 53.156v7.687C34 61.466 33.466 62 32.844 62h-5.687c-0.623 0-1.068-0.445-1.156-1.156V53.156zM32.156 50c-0.623 0-1.068-0.445-1.156-1.156v-7.687C31 40.534 31.534 40 32.156 40h5.687C38.466 40 39 40.534 39 41.156v7.687C39 49.466 38.466 50 37.844 50H32.156zM36 53.156C36 52.534 36.534 52 37.156 52h5.687C43.466 52 44 52.534 44 53.156v7.687C44 61.466 43.466 62 42.844 62h-5.687c-0.623 0-1.068-0.445-1.156-1.156V53.156zM42.156 50c-0.623 0-1.068-0.445-1.156-1.156v-7.687C41 40.534 41.534 40 42.156 40h5.687C48.466 40 49 40.534 49 41.156v7.687C49 49.466 48.466 50 47.844 50H42.156zM46 53.156C46 52.534 46.534 52 47.156 52h5.687C53.466 52 54 52.534 54 53.156v7.687C54 61.466 53.466 62 52.844 62h-5.687c-0.623 0-1.068-0.445-1.156-1.156V53.156zM52.156 50c-0.623 0-1.068-0.445-1.156-1.156v-7.687C51 40.534 51.534 40 52.156 40h5.687C58.466 40 59 40.534 59 41.156v7.687C59 49.466 58.466 50 57.844 50H52.156zM56 53.156C56 52.534 56.534 52 57.156 52h5.687C63.466 52 64 52.534 64 53.156v7.687C64 61.466 63.466 62 62.844 62h-5.687c-0.623 0-1.068-0.445-1.156-1.156V53.156zM62.156 50c-0.623 0-1.068-0.445-1.156-1.156v-7.687C61 40.534 61.534 40 62.156 40h5.687C68.466 40 69 40.534 69 41.156v7.687C69 49.466 68.466 50 67.844 50H62.156zM66 53.156C66 52.534 66.534 52 67.156 52h5.687C73.466 52 74 52.534 74 53.156v7.687C74 61.466 73.466 62 72.844 62h-5.687c-0.623 0-1.068-0.445-1.156-1.156V53.156zM72.156 50c-0.623 0-1.068-0.445-1.156-1.156v-7.687C71 40.534 71.534 40 72.156 40h5.687C78.466 40 79 40.534 79 41.156v7.687C79 49.466 78.466 50 77.844 50H72.156zM66 29.156C66 28.534 66.534 28 67.156 28h5.687C73.466 28 74 28.534 74 29.156v7.687C74 37.466 73.466 38 72.844 38h-5.687c-0.623 0-1.068-0.445-1.156-1.156V29.156zM56 29.156C56 28.534 56.534 28 57.156 28h5.687C63.466 28 64 28.534 64 29.156v7.687C64 37.466 63.466 38 62.844 38h-5.687c-0.623 0-1.068-0.445-1.156-1.156V29.156zM46 29.156C46 28.534 46.534 28 47.156 28h5.687C53.466 28 54 28.534 54 29.156v7.687C54 37.466 53.466 38 52.844 38h-5.687c-0.623 0-1.068-0.445-1.156-1.156V29.156zM36 29.156C36 28.534 36.534 28 37.156 28h5.687C43.466 28 44 28.534 44 29.156v7.687C44 37.466 43.466 38 42.844 38h-5.687c-0.623 0-1.068-0.445-1.156-1.156V29.156zM26 29.156C26 28.534 26.534 28 27.156 28h5.687C33.466 28 34 28.534 34 29.156v7.687C34 37.466 33.466 38 32.844 38h-5.687c-0.623 0-1.068-0.445-1.156-1.156V29.156zM16 29.156C16 28.534 16.534 28 17.156 28h5.687C23.466 28 24 28.534 24 29.156v7.687C24 37.466 23.466 38 22.844 38h-5.687c-0.623 0-1.068-0.445-1.156-1.156V29.156zM6 29.156C6 28.534 6.534 28 7.156 28h5.687C13.466 28 14 28.534 14 29.156v7.687C14 37.466 13.466 38 12.844 38H7.156C6.534 38 6.089 37.555 6 36.844V29.156zM6 53.156C6 52.534 6.534 52 7.156 52h5.687C13.466 52 14 52.534 14 53.156v7.687C14 61.466 13.466 62 12.844 62H7.156C6.534 62 6.089 61.555 6 60.844V53.156zM20 72.844C20 73.466 19.466 74 18.844 74H7.156C6.534 74 6.089 73.555 6 72.844v-7.687C6 64.534 6.534 64 7.156 64h11.687C19.466 64 20 64.534 20 65.156V72.844zM75 72.844C75 73.466 74.466 74 73.844 74H23c-0.623 0-1-0.445-1-1.156v-7.687C22 64.534 22.377 64 23 64h50.844C74.466 64 75 64.534 75 65.156V72.844zM76 60.844v-7.687C76 52.534 76.534 52 77.156 52h5.687C83.466 52 84 52.534 84 53.156v7.687C84 61.466 83.466 62 82.844 62h-5.687C76.534 62 76.089 61.555 76 60.844zM94 72.844C94 73.466 93.466 74 92.844 74H78.156c-0.623 0-1.068-0.445-1.156-1.156v-7.687C77 64.534 77.534 64 78.156 64h14.687C93.466 64 94 64.534 94 65.156V72.844zM94 60.844C94 61.466 93.466 62 92.844 62h-5.687c-0.623 0-1.068-0.445-1.156-1.156v-7.687C86 52.534 86.534 52 87.156 52h5.687C93.466 52 94 52.534 94 53.156V60.844zM94 36.844C94 37.466 93.466 38 92.844 38h-5.687c-0.623 0-1.068-0.445-1.156-1.156v-7.687C86 28.534 86.534 28 87.156 28h5.687C93.466 28 94 28.534 94 29.156V36.844z" data-fill-palette-color="accent"></path></g></svg></g></svg></g></svg></g><defs></defs></svg><rect width="395.52" height="73.08220645735642" fill="none" stroke="none" visibility="hidden"></rect></g></svg></g></svg>